<mxfile host="Electron" agent="Mozilla/5.0 (Macintosh; Intel Mac OS X 10_15_7) AppleWebKit/537.36 (KHTML, like Gecko) draw.io/28.1.2 Chrome/138.0.7204.243 Electron/37.4.0 Safari/537.36" version="28.1.2">
  <diagram id="G_xxMAMBId4_zXQvPNh_" name="Project">
    <mxGraphModel dx="1176" dy="379" grid="1" gridSize="10" guides="1" tooltips="1" connect="1" arrows="1" fold="1" page="1" pageScale="1" pageWidth="1654" pageHeight="1169" math="0" shadow="0">
      <root>
        <mxCell id="0" />
        <mxCell id="1" parent="0" />
        <mxCell id="BMJ4djX7dh_ReBlbfwXL-97" value="&lt;u&gt;F_Class_Enrollment&lt;/u&gt;&lt;br&gt;&lt;div&gt;&lt;u&gt;&lt;br&gt;&lt;/u&gt;&lt;/div&gt;&lt;div&gt;enrollment_count&lt;/div&gt;&lt;div&gt;attendance_count&lt;/div&gt;&lt;div&gt;no_show_count&lt;/div&gt;&lt;div&gt;cancellation_count&lt;/div&gt;&lt;div&gt;payment_amount&lt;/div&gt;&lt;div&gt;late_arrival_minutes&lt;/div&gt;&lt;div&gt;early_departure_minutes&lt;/div&gt;&lt;div&gt;attendance_duration_minutes +!&lt;/div&gt;&lt;div&gt;instructor_rating +!&lt;/div&gt;&lt;div&gt;member_satisfaction_score +!&lt;/div&gt;&lt;div&gt;enrollment_status +!&lt;/div&gt;&lt;div&gt;cancellation_reason +!&lt;/div&gt;&lt;div&gt;/class_attendance_rate&lt;/div&gt;&lt;div&gt;/class_no_show_rate&lt;/div&gt;&lt;div&gt;/class_revenue&lt;/div&gt;&lt;div&gt;/capacity_utilization_rate&lt;/div&gt;&lt;div&gt;&lt;br&gt;&lt;/div&gt;" style="shape=cube;whiteSpace=wrap;html=1;boundedLbl=1;backgroundOutline=1;darkOpacity=0.05;darkOpacity2=0.1;" vertex="1" parent="1">
          <mxGeometry x="490" y="1690" width="290" height="330" as="geometry" />
        </mxCell>
        <mxCell id="BMJ4djX7dh_ReBlbfwXL-98" value="&lt;u&gt;F_Equipment_Usage&lt;/u&gt;&lt;br&gt;&lt;div&gt;&lt;u&gt;&lt;br&gt;&lt;/u&gt;&lt;/div&gt;&lt;div&gt;usage_session_count&lt;/div&gt;&lt;div&gt;usage_duration_minutes&lt;/div&gt;&lt;div&gt;pear_hour_flag&lt;/div&gt;&lt;div&gt;weekend_usage_flag&lt;/div&gt;&lt;div&gt;intensity_level +!&lt;/div&gt;&lt;div&gt;member_satisfaction_score +!&lt;/div&gt;&lt;div&gt;/equipment_utilization_rate&lt;/div&gt;&lt;div&gt;/average_session_duration&lt;/div&gt;&lt;div&gt;/peak_usage_percentage&lt;/div&gt;&lt;div&gt;/member_usage_fequency&lt;/div&gt;&lt;div&gt;/equipment_popularity_rank&lt;/div&gt;&lt;div&gt;&lt;br&gt;&lt;/div&gt;" style="shape=cube;whiteSpace=wrap;html=1;boundedLbl=1;backgroundOutline=1;darkOpacity=0.05;darkOpacity2=0.1;" vertex="1" parent="1">
          <mxGeometry x="890" y="1690" width="290" height="330" as="geometry" />
        </mxCell>
        <mxCell id="BMJ4djX7dh_ReBlbfwXL-99" value="" style="group" vertex="1" connectable="0" parent="1">
          <mxGeometry x="300" y="1557" width="192" height="116" as="geometry" />
        </mxCell>
        <mxCell id="BMJ4djX7dh_ReBlbfwXL-100" value="Dim_Member" style="swimlane;fontStyle=0;childLayout=stackLayout;horizontal=1;startSize=26;horizontalStack=0;resizeParent=1;resizeParentMax=0;resizeLast=0;collapsible=1;marginBottom=0;align=center;fontSize=14;" vertex="1" parent="BMJ4djX7dh_ReBlbfwXL-99">
          <mxGeometry width="160" height="146" as="geometry" />
        </mxCell>
        <mxCell id="BMJ4djX7dh_ReBlbfwXL-101" value="&lt;u&gt;MemberKey&lt;/u&gt;" style="text;strokeColor=none;fillColor=none;spacingLeft=4;spacingRight=4;overflow=hidden;rotatable=0;points=[[0,0.5],[1,0.5]];portConstraint=eastwest;fontSize=12;whiteSpace=wrap;html=1;" vertex="1" parent="BMJ4djX7dh_ReBlbfwXL-100">
          <mxGeometry y="26" width="160" height="30" as="geometry" />
        </mxCell>
        <mxCell id="BMJ4djX7dh_ReBlbfwXL-102" value="age_group" style="text;strokeColor=none;fillColor=none;spacingLeft=4;spacingRight=4;overflow=hidden;rotatable=0;points=[[0,0.5],[1,0.5]];portConstraint=eastwest;fontSize=12;whiteSpace=wrap;html=1;" vertex="1" parent="BMJ4djX7dh_ReBlbfwXL-100">
          <mxGeometry y="56" width="160" height="30" as="geometry" />
        </mxCell>
        <mxCell id="BMJ4djX7dh_ReBlbfwXL-103" value="member_status" style="text;strokeColor=none;fillColor=none;spacingLeft=4;spacingRight=4;overflow=hidden;rotatable=0;points=[[0,0.5],[1,0.5]];portConstraint=eastwest;fontSize=12;whiteSpace=wrap;html=1;" vertex="1" parent="BMJ4djX7dh_ReBlbfwXL-100">
          <mxGeometry y="86" width="160" height="30" as="geometry" />
        </mxCell>
        <mxCell id="BMJ4djX7dh_ReBlbfwXL-104" value="is_current" style="text;strokeColor=none;fillColor=none;spacingLeft=4;spacingRight=4;overflow=hidden;rotatable=0;points=[[0,0.5],[1,0.5]];portConstraint=eastwest;fontSize=12;whiteSpace=wrap;html=1;" vertex="1" parent="BMJ4djX7dh_ReBlbfwXL-100">
          <mxGeometry y="116" width="160" height="30" as="geometry" />
        </mxCell>
        <mxCell id="BMJ4djX7dh_ReBlbfwXL-105" value="Geography" style="html=1;dashed=0;whiteSpace=wrap;shape=mxgraph.dfd.start;rotation=-90;" vertex="1" parent="BMJ4djX7dh_ReBlbfwXL-99">
          <mxGeometry x="137" y="30" width="80" height="30" as="geometry" />
        </mxCell>
        <mxCell id="BMJ4djX7dh_ReBlbfwXL-106" value="Day" style="html=1;dashed=0;whiteSpace=wrap;shape=mxgraph.dfd.start;rotation=-90;" vertex="1" parent="1">
          <mxGeometry x="244" y="1583" width="80" height="30" as="geometry" />
        </mxCell>
        <mxCell id="BMJ4djX7dh_ReBlbfwXL-120" style="edgeStyle=orthogonalEdgeStyle;shape=connector;rounded=0;orthogonalLoop=1;jettySize=auto;html=1;entryX=0;entryY=0.5;entryDx=0;entryDy=0;strokeColor=default;align=center;verticalAlign=middle;fontFamily=Helvetica;fontSize=11;fontColor=default;labelBackgroundColor=default;endArrow=ERmany;endFill=0;exitX=0.25;exitY=0;exitDx=0;exitDy=0;" edge="1" parent="1" source="BMJ4djX7dh_ReBlbfwXL-107" target="BMJ4djX7dh_ReBlbfwXL-104">
          <mxGeometry relative="1" as="geometry" />
        </mxCell>
        <mxCell id="BMJ4djX7dh_ReBlbfwXL-121" value="join_date" style="edgeLabel;html=1;align=center;verticalAlign=middle;resizable=0;points=[];fontFamily=Helvetica;fontSize=11;fontColor=default;labelBackgroundColor=default;" vertex="1" connectable="0" parent="BMJ4djX7dh_ReBlbfwXL-120">
          <mxGeometry x="0.0081" y="-2" relative="1" as="geometry">
            <mxPoint x="6" y="-9" as="offset" />
          </mxGeometry>
        </mxCell>
        <mxCell id="BMJ4djX7dh_ReBlbfwXL-122" style="edgeStyle=orthogonalEdgeStyle;shape=connector;rounded=0;orthogonalLoop=1;jettySize=auto;html=1;exitX=0.75;exitY=0;exitDx=0;exitDy=0;strokeColor=default;align=center;verticalAlign=middle;fontFamily=Helvetica;fontSize=11;fontColor=default;labelBackgroundColor=default;endArrow=ERmany;endFill=0;" edge="1" parent="1" source="BMJ4djX7dh_ReBlbfwXL-107" target="BMJ4djX7dh_ReBlbfwXL-104">
          <mxGeometry relative="1" as="geometry" />
        </mxCell>
        <mxCell id="BMJ4djX7dh_ReBlbfwXL-123" value="effective_date" style="edgeLabel;html=1;align=center;verticalAlign=middle;resizable=0;points=[];fontFamily=Helvetica;fontSize=11;fontColor=default;labelBackgroundColor=default;" vertex="1" connectable="0" parent="BMJ4djX7dh_ReBlbfwXL-122">
          <mxGeometry x="-0.0211" relative="1" as="geometry">
            <mxPoint x="-21" y="-11" as="offset" />
          </mxGeometry>
        </mxCell>
        <mxCell id="BMJ4djX7dh_ReBlbfwXL-162" style="edgeStyle=orthogonalEdgeStyle;shape=connector;rounded=0;orthogonalLoop=1;jettySize=auto;html=1;strokeColor=default;align=center;verticalAlign=middle;fontFamily=Helvetica;fontSize=11;fontColor=default;labelBackgroundColor=default;endArrow=ERmany;endFill=0;" edge="1" parent="1" source="BMJ4djX7dh_ReBlbfwXL-107" target="BMJ4djX7dh_ReBlbfwXL-98">
          <mxGeometry relative="1" as="geometry">
            <Array as="points">
              <mxPoint x="470" y="1968" />
              <mxPoint x="470" y="2080" />
              <mxPoint x="1035" y="2080" />
            </Array>
          </mxGeometry>
        </mxCell>
        <mxCell id="BMJ4djX7dh_ReBlbfwXL-107" value="Day" style="swimlane;fontStyle=0;childLayout=stackLayout;horizontal=1;startSize=26;horizontalStack=0;resizeParent=1;resizeParentMax=0;resizeLast=0;collapsible=1;marginBottom=0;align=center;fontSize=14;" vertex="1" parent="1">
          <mxGeometry x="300" y="1940" width="160" height="56" as="geometry" />
        </mxCell>
        <mxCell id="BMJ4djX7dh_ReBlbfwXL-108" value="&lt;u&gt;DayKey&lt;/u&gt;" style="text;strokeColor=none;fillColor=none;spacingLeft=4;spacingRight=4;overflow=hidden;rotatable=0;points=[[0,0.5],[1,0.5]];portConstraint=eastwest;fontSize=12;whiteSpace=wrap;html=1;" vertex="1" parent="BMJ4djX7dh_ReBlbfwXL-107">
          <mxGeometry y="26" width="160" height="30" as="geometry" />
        </mxCell>
        <mxCell id="BMJ4djX7dh_ReBlbfwXL-109" value="Quarter" style="swimlane;fontStyle=0;childLayout=stackLayout;horizontal=1;startSize=26;horizontalStack=0;resizeParent=1;resizeParentMax=0;resizeLast=0;collapsible=1;marginBottom=0;align=center;fontSize=14;" vertex="1" parent="1">
          <mxGeometry x="220" y="2230" width="160" height="56" as="geometry" />
        </mxCell>
        <mxCell id="BMJ4djX7dh_ReBlbfwXL-110" value="&lt;u&gt;QuarterKey&lt;/u&gt;" style="text;strokeColor=none;fillColor=none;spacingLeft=4;spacingRight=4;overflow=hidden;rotatable=0;points=[[0,0.5],[1,0.5]];portConstraint=eastwest;fontSize=12;whiteSpace=wrap;html=1;" vertex="1" parent="BMJ4djX7dh_ReBlbfwXL-109">
          <mxGeometry y="26" width="160" height="30" as="geometry" />
        </mxCell>
        <mxCell id="BMJ4djX7dh_ReBlbfwXL-111" value="Year" style="swimlane;fontStyle=0;childLayout=stackLayout;horizontal=1;startSize=26;horizontalStack=0;resizeParent=1;resizeParentMax=0;resizeLast=0;collapsible=1;marginBottom=0;align=center;fontSize=14;" vertex="1" parent="1">
          <mxGeometry x="390" y="2270" width="160" height="56" as="geometry" />
        </mxCell>
        <mxCell id="BMJ4djX7dh_ReBlbfwXL-112" value="&lt;u&gt;Year&lt;/u&gt;" style="text;strokeColor=none;fillColor=none;spacingLeft=4;spacingRight=4;overflow=hidden;rotatable=0;points=[[0,0.5],[1,0.5]];portConstraint=eastwest;fontSize=12;whiteSpace=wrap;html=1;" vertex="1" parent="BMJ4djX7dh_ReBlbfwXL-111">
          <mxGeometry y="26" width="160" height="30" as="geometry" />
        </mxCell>
        <mxCell id="BMJ4djX7dh_ReBlbfwXL-113" style="edgeStyle=orthogonalEdgeStyle;shape=connector;rounded=0;orthogonalLoop=1;jettySize=auto;html=1;exitX=0;exitY=0.5;exitDx=0;exitDy=0;entryX=1;entryY=0.5;entryDx=0;entryDy=0;strokeColor=default;align=center;verticalAlign=middle;fontFamily=Helvetica;fontSize=11;fontColor=default;labelBackgroundColor=default;endArrow=none;endFill=0;startArrow=ERmany;startFill=0;" edge="1" parent="1" source="BMJ4djX7dh_ReBlbfwXL-108" target="BMJ4djX7dh_ReBlbfwXL-117">
          <mxGeometry relative="1" as="geometry" />
        </mxCell>
        <mxCell id="BMJ4djX7dh_ReBlbfwXL-114" style="edgeStyle=orthogonalEdgeStyle;shape=connector;rounded=0;orthogonalLoop=1;jettySize=auto;html=1;entryX=0;entryY=0.5;entryDx=0;entryDy=0;strokeColor=default;align=center;verticalAlign=middle;fontFamily=Helvetica;fontSize=11;fontColor=default;labelBackgroundColor=default;endArrow=none;endFill=0;startArrow=ERmany;startFill=0;" edge="1" parent="1" source="BMJ4djX7dh_ReBlbfwXL-116" target="BMJ4djX7dh_ReBlbfwXL-110">
          <mxGeometry relative="1" as="geometry" />
        </mxCell>
        <mxCell id="BMJ4djX7dh_ReBlbfwXL-115" style="edgeStyle=orthogonalEdgeStyle;shape=connector;rounded=0;orthogonalLoop=1;jettySize=auto;html=1;entryX=1;entryY=0.5;entryDx=0;entryDy=0;strokeColor=default;align=center;verticalAlign=middle;fontFamily=Helvetica;fontSize=11;fontColor=default;labelBackgroundColor=default;endArrow=none;endFill=0;startArrow=ERmany;startFill=0;" edge="1" parent="1" source="BMJ4djX7dh_ReBlbfwXL-110" target="BMJ4djX7dh_ReBlbfwXL-112">
          <mxGeometry relative="1" as="geometry" />
        </mxCell>
        <mxCell id="BMJ4djX7dh_ReBlbfwXL-116" value="Month" style="swimlane;fontStyle=0;childLayout=stackLayout;horizontal=1;startSize=26;horizontalStack=0;resizeParent=1;resizeParentMax=0;resizeLast=0;collapsible=1;marginBottom=0;align=center;fontSize=14;" vertex="1" parent="1">
          <mxGeometry x="282" y="2080" width="160" height="116" as="geometry" />
        </mxCell>
        <mxCell id="BMJ4djX7dh_ReBlbfwXL-117" value="&lt;u&gt;MonthKey&lt;/u&gt;" style="text;strokeColor=none;fillColor=none;spacingLeft=4;spacingRight=4;overflow=hidden;rotatable=0;points=[[0,0.5],[1,0.5]];portConstraint=eastwest;fontSize=12;whiteSpace=wrap;html=1;" vertex="1" parent="BMJ4djX7dh_ReBlbfwXL-116">
          <mxGeometry y="26" width="160" height="30" as="geometry" />
        </mxCell>
        <mxCell id="BMJ4djX7dh_ReBlbfwXL-118" value="MonthName" style="text;strokeColor=none;fillColor=none;spacingLeft=4;spacingRight=4;overflow=hidden;rotatable=0;points=[[0,0.5],[1,0.5]];portConstraint=eastwest;fontSize=12;whiteSpace=wrap;html=1;" vertex="1" parent="BMJ4djX7dh_ReBlbfwXL-116">
          <mxGeometry y="56" width="160" height="30" as="geometry" />
        </mxCell>
        <mxCell id="BMJ4djX7dh_ReBlbfwXL-119" value="MonthAbbreviation" style="text;strokeColor=none;fillColor=none;spacingLeft=4;spacingRight=4;overflow=hidden;rotatable=0;points=[[0,0.5],[1,0.5]];portConstraint=eastwest;fontSize=12;whiteSpace=wrap;html=1;" vertex="1" parent="BMJ4djX7dh_ReBlbfwXL-116">
          <mxGeometry y="86" width="160" height="30" as="geometry" />
        </mxCell>
        <mxCell id="BMJ4djX7dh_ReBlbfwXL-124" style="edgeStyle=orthogonalEdgeStyle;shape=connector;rounded=0;orthogonalLoop=1;jettySize=auto;html=1;exitX=0.5;exitY=0;exitDx=0;exitDy=0;entryX=0.394;entryY=0.967;entryDx=0;entryDy=0;entryPerimeter=0;strokeColor=default;align=center;verticalAlign=middle;fontFamily=Helvetica;fontSize=11;fontColor=default;labelBackgroundColor=default;endArrow=ERmany;endFill=0;" edge="1" parent="1" source="BMJ4djX7dh_ReBlbfwXL-107" target="BMJ4djX7dh_ReBlbfwXL-104">
          <mxGeometry relative="1" as="geometry" />
        </mxCell>
        <mxCell id="BMJ4djX7dh_ReBlbfwXL-125" value="end_date" style="edgeLabel;html=1;align=center;verticalAlign=middle;resizable=0;points=[];fontFamily=Helvetica;fontSize=11;fontColor=default;labelBackgroundColor=default;" vertex="1" connectable="0" parent="BMJ4djX7dh_ReBlbfwXL-124">
          <mxGeometry x="-0.2" y="3" relative="1" as="geometry">
            <mxPoint x="-15" y="-28" as="offset" />
          </mxGeometry>
        </mxCell>
        <mxCell id="BMJ4djX7dh_ReBlbfwXL-126" value="City" style="swimlane;fontStyle=0;childLayout=stackLayout;horizontal=1;startSize=26;horizontalStack=0;resizeParent=1;resizeParentMax=0;resizeLast=0;collapsible=1;marginBottom=0;align=center;fontSize=14;" vertex="1" parent="1">
          <mxGeometry x="810" y="1180" width="160" height="56" as="geometry" />
        </mxCell>
        <mxCell id="BMJ4djX7dh_ReBlbfwXL-127" value="&lt;u&gt;CityKey&lt;/u&gt;" style="text;strokeColor=none;fillColor=none;spacingLeft=4;spacingRight=4;overflow=hidden;rotatable=0;points=[[0,0.5],[1,0.5]];portConstraint=eastwest;fontSize=12;whiteSpace=wrap;html=1;" vertex="1" parent="BMJ4djX7dh_ReBlbfwXL-126">
          <mxGeometry y="26" width="160" height="30" as="geometry" />
        </mxCell>
        <mxCell id="BMJ4djX7dh_ReBlbfwXL-128" value="State" style="swimlane;fontStyle=0;childLayout=stackLayout;horizontal=1;startSize=26;horizontalStack=0;resizeParent=1;resizeParentMax=0;resizeLast=0;collapsible=1;marginBottom=0;align=center;fontSize=14;" vertex="1" parent="1">
          <mxGeometry x="810" y="1270" width="160" height="56" as="geometry" />
        </mxCell>
        <mxCell id="BMJ4djX7dh_ReBlbfwXL-129" value="&lt;u&gt;StateKey&lt;/u&gt;" style="text;strokeColor=none;fillColor=none;spacingLeft=4;spacingRight=4;overflow=hidden;rotatable=0;points=[[0,0.5],[1,0.5]];portConstraint=eastwest;fontSize=12;whiteSpace=wrap;html=1;" vertex="1" parent="BMJ4djX7dh_ReBlbfwXL-128">
          <mxGeometry y="26" width="160" height="30" as="geometry" />
        </mxCell>
        <mxCell id="BMJ4djX7dh_ReBlbfwXL-130" value="Country" style="swimlane;fontStyle=0;childLayout=stackLayout;horizontal=1;startSize=26;horizontalStack=0;resizeParent=1;resizeParentMax=0;resizeLast=0;collapsible=1;marginBottom=0;align=center;fontSize=14;" vertex="1" parent="1">
          <mxGeometry x="810" y="1370" width="160" height="56" as="geometry" />
        </mxCell>
        <mxCell id="BMJ4djX7dh_ReBlbfwXL-131" value="&lt;u&gt;CountryKey&lt;/u&gt;" style="text;strokeColor=none;fillColor=none;spacingLeft=4;spacingRight=4;overflow=hidden;rotatable=0;points=[[0,0.5],[1,0.5]];portConstraint=eastwest;fontSize=12;whiteSpace=wrap;html=1;" vertex="1" parent="BMJ4djX7dh_ReBlbfwXL-130">
          <mxGeometry y="26" width="160" height="30" as="geometry" />
        </mxCell>
        <mxCell id="BMJ4djX7dh_ReBlbfwXL-132" value="" style="edgeStyle=entityRelationEdgeStyle;fontSize=12;html=1;endArrow=ERmany;rounded=0;exitX=1;exitY=0.25;exitDx=0;exitDy=0;entryX=1;entryY=0.5;entryDx=0;entryDy=0;" edge="1" parent="1" source="BMJ4djX7dh_ReBlbfwXL-128" target="BMJ4djX7dh_ReBlbfwXL-127">
          <mxGeometry width="100" height="100" relative="1" as="geometry">
            <mxPoint x="1080" y="1291" as="sourcePoint" />
            <mxPoint x="1077.92" y="1218.0100000000002" as="targetPoint" />
            <Array as="points">
              <mxPoint x="1107.92" y="1267.0100000000002" />
            </Array>
          </mxGeometry>
        </mxCell>
        <mxCell id="BMJ4djX7dh_ReBlbfwXL-133" value="" style="edgeStyle=entityRelationEdgeStyle;fontSize=12;html=1;endArrow=none;rounded=0;exitX=1;exitY=0.5;exitDx=0;exitDy=0;entryX=1;entryY=0.5;entryDx=0;entryDy=0;startArrow=ERmany;startFill=0;endFill=0;" edge="1" parent="1" source="BMJ4djX7dh_ReBlbfwXL-129" target="BMJ4djX7dh_ReBlbfwXL-131">
          <mxGeometry width="100" height="100" relative="1" as="geometry">
            <mxPoint x="990" y="1260" as="sourcePoint" />
            <mxPoint x="990" y="1337" as="targetPoint" />
          </mxGeometry>
        </mxCell>
        <mxCell id="BMJ4djX7dh_ReBlbfwXL-134" style="edgeStyle=orthogonalEdgeStyle;shape=connector;rounded=0;orthogonalLoop=1;jettySize=auto;html=1;entryX=0.5;entryY=0.5;entryDx=0;entryDy=15;entryPerimeter=0;strokeColor=default;align=center;verticalAlign=middle;fontFamily=Helvetica;fontSize=11;fontColor=default;labelBackgroundColor=default;endArrow=ERmany;endFill=0;" edge="1" parent="1" source="BMJ4djX7dh_ReBlbfwXL-127" target="BMJ4djX7dh_ReBlbfwXL-105">
          <mxGeometry relative="1" as="geometry">
            <Array as="points">
              <mxPoint x="520" y="1221" />
              <mxPoint x="520" y="1602" />
            </Array>
          </mxGeometry>
        </mxCell>
        <mxCell id="BMJ4djX7dh_ReBlbfwXL-135" value="" style="group" vertex="1" connectable="0" parent="1">
          <mxGeometry x="1150" y="1460" width="192" height="116" as="geometry" />
        </mxCell>
        <mxCell id="BMJ4djX7dh_ReBlbfwXL-136" value="Dim_Facility" style="swimlane;fontStyle=0;childLayout=stackLayout;horizontal=1;startSize=26;horizontalStack=0;resizeParent=1;resizeParentMax=0;resizeLast=0;collapsible=1;marginBottom=0;align=center;fontSize=14;" vertex="1" parent="BMJ4djX7dh_ReBlbfwXL-135">
          <mxGeometry width="160" height="86" as="geometry" />
        </mxCell>
        <mxCell id="BMJ4djX7dh_ReBlbfwXL-137" value="&lt;u&gt;FacilityKey&lt;/u&gt;" style="text;strokeColor=none;fillColor=none;spacingLeft=4;spacingRight=4;overflow=hidden;rotatable=0;points=[[0,0.5],[1,0.5]];portConstraint=eastwest;fontSize=12;whiteSpace=wrap;html=1;" vertex="1" parent="BMJ4djX7dh_ReBlbfwXL-136">
          <mxGeometry y="26" width="160" height="30" as="geometry" />
        </mxCell>
        <mxCell id="BMJ4djX7dh_ReBlbfwXL-138" value="FacilityName" style="text;strokeColor=none;fillColor=none;spacingLeft=4;spacingRight=4;overflow=hidden;rotatable=0;points=[[0,0.5],[1,0.5]];portConstraint=eastwest;fontSize=12;whiteSpace=wrap;html=1;" vertex="1" parent="BMJ4djX7dh_ReBlbfwXL-136">
          <mxGeometry y="56" width="160" height="30" as="geometry" />
        </mxCell>
        <mxCell id="BMJ4djX7dh_ReBlbfwXL-141" value="Geography" style="html=1;dashed=0;whiteSpace=wrap;shape=mxgraph.dfd.start;rotation=-90;" vertex="1" parent="1">
          <mxGeometry x="1095" y="1490" width="80" height="30" as="geometry" />
        </mxCell>
        <mxCell id="BMJ4djX7dh_ReBlbfwXL-142" style="edgeStyle=orthogonalEdgeStyle;shape=connector;rounded=0;orthogonalLoop=1;jettySize=auto;html=1;exitX=1;exitY=0.25;exitDx=0;exitDy=0;entryX=0.5;entryY=0.5;entryDx=0;entryDy=-15;entryPerimeter=0;strokeColor=default;align=center;verticalAlign=middle;fontFamily=Helvetica;fontSize=11;fontColor=default;labelBackgroundColor=default;endArrow=ERmany;endFill=0;" edge="1" parent="1" source="BMJ4djX7dh_ReBlbfwXL-126" target="BMJ4djX7dh_ReBlbfwXL-141">
          <mxGeometry relative="1" as="geometry" />
        </mxCell>
        <mxCell id="BMJ4djX7dh_ReBlbfwXL-143" style="edgeStyle=orthogonalEdgeStyle;shape=connector;rounded=0;orthogonalLoop=1;jettySize=auto;html=1;entryX=0.997;entryY=0.17;entryDx=0;entryDy=0;entryPerimeter=0;strokeColor=default;align=center;verticalAlign=middle;fontFamily=Helvetica;fontSize=11;fontColor=default;labelBackgroundColor=default;endArrow=ERmany;endFill=0;" edge="1" parent="1" source="BMJ4djX7dh_ReBlbfwXL-136" target="BMJ4djX7dh_ReBlbfwXL-98">
          <mxGeometry relative="1" as="geometry" />
        </mxCell>
        <mxCell id="BMJ4djX7dh_ReBlbfwXL-144" style="edgeStyle=orthogonalEdgeStyle;shape=connector;rounded=0;orthogonalLoop=1;jettySize=auto;html=1;strokeColor=default;align=center;verticalAlign=middle;fontFamily=Helvetica;fontSize=11;fontColor=default;labelBackgroundColor=default;endArrow=ERmany;endFill=0;" edge="1" parent="1" source="BMJ4djX7dh_ReBlbfwXL-138" target="BMJ4djX7dh_ReBlbfwXL-97">
          <mxGeometry relative="1" as="geometry">
            <Array as="points">
              <mxPoint x="1180" y="1620" />
              <mxPoint x="635" y="1620" />
            </Array>
          </mxGeometry>
        </mxCell>
        <mxCell id="BMJ4djX7dh_ReBlbfwXL-145" style="edgeStyle=orthogonalEdgeStyle;shape=connector;rounded=0;orthogonalLoop=1;jettySize=auto;html=1;entryX=0.248;entryY=0;entryDx=0;entryDy=0;entryPerimeter=0;strokeColor=default;align=center;verticalAlign=middle;fontFamily=Helvetica;fontSize=11;fontColor=default;labelBackgroundColor=default;endArrow=ERmany;endFill=0;" edge="1" parent="1" source="BMJ4djX7dh_ReBlbfwXL-103" target="BMJ4djX7dh_ReBlbfwXL-97">
          <mxGeometry relative="1" as="geometry" />
        </mxCell>
        <mxCell id="BMJ4djX7dh_ReBlbfwXL-146" style="edgeStyle=orthogonalEdgeStyle;shape=connector;rounded=0;orthogonalLoop=1;jettySize=auto;html=1;strokeColor=default;align=center;verticalAlign=middle;fontFamily=Helvetica;fontSize=11;fontColor=default;labelBackgroundColor=default;endArrow=ERmany;endFill=0;exitX=1.025;exitY=0.2;exitDx=0;exitDy=0;exitPerimeter=0;" edge="1" parent="1" source="BMJ4djX7dh_ReBlbfwXL-103" target="BMJ4djX7dh_ReBlbfwXL-98">
          <mxGeometry relative="1" as="geometry">
            <mxPoint x="540" y="1650" as="sourcePoint" />
            <mxPoint x="910" y="1870" as="targetPoint" />
            <Array as="points">
              <mxPoint x="464" y="1650" />
              <mxPoint x="830" y="1650" />
              <mxPoint x="830" y="1865" />
            </Array>
          </mxGeometry>
        </mxCell>
        <mxCell id="BMJ4djX7dh_ReBlbfwXL-147" value="" style="group" vertex="1" connectable="0" parent="1">
          <mxGeometry x="840" y="1480" width="216" height="116" as="geometry" />
        </mxCell>
        <mxCell id="BMJ4djX7dh_ReBlbfwXL-148" value="Dim_Facility_Area" style="swimlane;fontStyle=0;childLayout=stackLayout;horizontal=1;startSize=26;horizontalStack=0;resizeParent=1;resizeParentMax=0;resizeLast=0;collapsible=1;marginBottom=0;align=center;fontSize=14;" vertex="1" parent="BMJ4djX7dh_ReBlbfwXL-147">
          <mxGeometry width="160" height="86" as="geometry" />
        </mxCell>
        <mxCell id="BMJ4djX7dh_ReBlbfwXL-149" value="&lt;u&gt;FacilityAreaKey&lt;/u&gt;" style="text;strokeColor=none;fillColor=none;spacingLeft=4;spacingRight=4;overflow=hidden;rotatable=0;points=[[0,0.5],[1,0.5]];portConstraint=eastwest;fontSize=12;whiteSpace=wrap;html=1;" vertex="1" parent="BMJ4djX7dh_ReBlbfwXL-148">
          <mxGeometry y="26" width="160" height="30" as="geometry" />
        </mxCell>
        <mxCell id="BMJ4djX7dh_ReBlbfwXL-150" value="FacilityAreaName" style="text;strokeColor=none;fillColor=none;spacingLeft=4;spacingRight=4;overflow=hidden;rotatable=0;points=[[0,0.5],[1,0.5]];portConstraint=eastwest;fontSize=12;whiteSpace=wrap;html=1;" vertex="1" parent="BMJ4djX7dh_ReBlbfwXL-148">
          <mxGeometry y="56" width="160" height="30" as="geometry" />
        </mxCell>
        <mxCell id="BMJ4djX7dh_ReBlbfwXL-151" value="Zone" style="html=1;dashed=0;whiteSpace=wrap;shape=mxgraph.dfd.start;rotation=-90;" vertex="1" parent="BMJ4djX7dh_ReBlbfwXL-147">
          <mxGeometry x="136" y="23" width="80" height="30" as="geometry" />
        </mxCell>
        <mxCell id="BMJ4djX7dh_ReBlbfwXL-153" style="edgeStyle=orthogonalEdgeStyle;shape=connector;rounded=0;orthogonalLoop=1;jettySize=auto;html=1;entryX=0.413;entryY=0.967;entryDx=0;entryDy=0;entryPerimeter=0;strokeColor=default;align=center;verticalAlign=middle;fontFamily=Helvetica;fontSize=11;fontColor=default;labelBackgroundColor=default;endArrow=ERmany;endFill=0;exitX=0.5;exitY=0;exitDx=0;exitDy=0;" edge="1" parent="1" source="BMJ4djX7dh_ReBlbfwXL-136" target="BMJ4djX7dh_ReBlbfwXL-151">
          <mxGeometry relative="1" as="geometry" />
        </mxCell>
        <mxCell id="BMJ4djX7dh_ReBlbfwXL-154" value="Type" style="html=1;dashed=0;whiteSpace=wrap;shape=mxgraph.dfd.start;rotation=-90;" vertex="1" parent="1">
          <mxGeometry x="784" y="1503" width="80" height="30" as="geometry" />
        </mxCell>
        <mxCell id="BMJ4djX7dh_ReBlbfwXL-155" value="Dim_AreaType" style="swimlane;fontStyle=0;childLayout=stackLayout;horizontal=1;startSize=26;horizontalStack=0;resizeParent=1;resizeParentMax=0;resizeLast=0;collapsible=1;marginBottom=0;align=center;fontSize=14;" vertex="1" parent="1">
          <mxGeometry x="590" y="1447" width="160" height="86" as="geometry" />
        </mxCell>
        <mxCell id="BMJ4djX7dh_ReBlbfwXL-156" value="&lt;u&gt;AreaTypeKey&lt;/u&gt;" style="text;strokeColor=none;fillColor=none;spacingLeft=4;spacingRight=4;overflow=hidden;rotatable=0;points=[[0,0.5],[1,0.5]];portConstraint=eastwest;fontSize=12;whiteSpace=wrap;html=1;" vertex="1" parent="BMJ4djX7dh_ReBlbfwXL-155">
          <mxGeometry y="26" width="160" height="30" as="geometry" />
        </mxCell>
        <mxCell id="BMJ4djX7dh_ReBlbfwXL-157" value="AreaType" style="text;strokeColor=none;fillColor=none;spacingLeft=4;spacingRight=4;overflow=hidden;rotatable=0;points=[[0,0.5],[1,0.5]];portConstraint=eastwest;fontSize=12;whiteSpace=wrap;html=1;" vertex="1" parent="BMJ4djX7dh_ReBlbfwXL-155">
          <mxGeometry y="56" width="160" height="30" as="geometry" />
        </mxCell>
        <mxCell id="BMJ4djX7dh_ReBlbfwXL-158" style="edgeStyle=orthogonalEdgeStyle;shape=connector;rounded=0;orthogonalLoop=1;jettySize=auto;html=1;entryX=0.5;entryY=0.5;entryDx=0;entryDy=-15;entryPerimeter=0;strokeColor=default;align=center;verticalAlign=middle;fontFamily=Helvetica;fontSize=11;fontColor=default;labelBackgroundColor=default;endArrow=ERmany;endFill=0;" edge="1" parent="1" source="BMJ4djX7dh_ReBlbfwXL-155" target="BMJ4djX7dh_ReBlbfwXL-154">
          <mxGeometry relative="1" as="geometry" />
        </mxCell>
        <mxCell id="BMJ4djX7dh_ReBlbfwXL-160" style="edgeStyle=orthogonalEdgeStyle;shape=connector;rounded=0;orthogonalLoop=1;jettySize=auto;html=1;entryX=0.855;entryY=0;entryDx=0;entryDy=0;entryPerimeter=0;strokeColor=default;align=center;verticalAlign=middle;fontFamily=Helvetica;fontSize=11;fontColor=default;labelBackgroundColor=default;endArrow=ERmany;endFill=0;exitX=0.144;exitY=1.033;exitDx=0;exitDy=0;exitPerimeter=0;" edge="1" parent="1" source="BMJ4djX7dh_ReBlbfwXL-150" target="BMJ4djX7dh_ReBlbfwXL-97">
          <mxGeometry relative="1" as="geometry" />
        </mxCell>
        <mxCell id="BMJ4djX7dh_ReBlbfwXL-161" style="edgeStyle=orthogonalEdgeStyle;shape=connector;rounded=0;orthogonalLoop=1;jettySize=auto;html=1;strokeColor=default;align=center;verticalAlign=middle;fontFamily=Helvetica;fontSize=11;fontColor=default;labelBackgroundColor=default;endArrow=ERmany;endFill=0;entryX=0.414;entryY=0;entryDx=0;entryDy=0;entryPerimeter=0;" edge="1" parent="1" source="BMJ4djX7dh_ReBlbfwXL-148" target="BMJ4djX7dh_ReBlbfwXL-98">
          <mxGeometry relative="1" as="geometry">
            <mxPoint x="1010" y="1690" as="targetPoint" />
          </mxGeometry>
        </mxCell>
        <mxCell id="BMJ4djX7dh_ReBlbfwXL-164" style="edgeStyle=orthogonalEdgeStyle;shape=connector;rounded=0;orthogonalLoop=1;jettySize=auto;html=1;entryX=0.01;entryY=0.548;entryDx=0;entryDy=0;entryPerimeter=0;strokeColor=default;align=center;verticalAlign=middle;fontFamily=Helvetica;fontSize=11;fontColor=default;labelBackgroundColor=default;endArrow=ERmany;endFill=0;exitX=1;exitY=0.25;exitDx=0;exitDy=0;" edge="1" parent="1" source="BMJ4djX7dh_ReBlbfwXL-107" target="BMJ4djX7dh_ReBlbfwXL-97">
          <mxGeometry relative="1" as="geometry" />
        </mxCell>
        <mxCell id="BMJ4djX7dh_ReBlbfwXL-165" value="Minute" style="swimlane;fontStyle=0;childLayout=stackLayout;horizontal=1;startSize=26;horizontalStack=0;resizeParent=1;resizeParentMax=0;resizeLast=0;collapsible=1;marginBottom=0;align=center;fontSize=14;" vertex="1" parent="1">
          <mxGeometry x="744" y="2094" width="160" height="56" as="geometry" />
        </mxCell>
        <mxCell id="BMJ4djX7dh_ReBlbfwXL-166" value="&lt;u&gt;MinuteKey&lt;/u&gt;" style="text;strokeColor=none;fillColor=none;spacingLeft=4;spacingRight=4;overflow=hidden;rotatable=0;points=[[0,0.5],[1,0.5]];portConstraint=eastwest;fontSize=12;whiteSpace=wrap;html=1;" vertex="1" parent="BMJ4djX7dh_ReBlbfwXL-165">
          <mxGeometry y="26" width="160" height="30" as="geometry" />
        </mxCell>
        <mxCell id="BMJ4djX7dh_ReBlbfwXL-168" value="Hour" style="swimlane;fontStyle=0;childLayout=stackLayout;horizontal=1;startSize=26;horizontalStack=0;resizeParent=1;resizeParentMax=0;resizeLast=0;collapsible=1;marginBottom=0;align=center;fontSize=14;" vertex="1" parent="1">
          <mxGeometry x="904" y="2150" width="160" height="176" as="geometry" />
        </mxCell>
        <mxCell id="BMJ4djX7dh_ReBlbfwXL-169" value="&lt;u&gt;HourKey&lt;/u&gt;" style="text;strokeColor=none;fillColor=none;spacingLeft=4;spacingRight=4;overflow=hidden;rotatable=0;points=[[0,0.5],[1,0.5]];portConstraint=eastwest;fontSize=12;whiteSpace=wrap;html=1;" vertex="1" parent="BMJ4djX7dh_ReBlbfwXL-168">
          <mxGeometry y="26" width="160" height="30" as="geometry" />
        </mxCell>
        <mxCell id="BMJ4djX7dh_ReBlbfwXL-170" value="Hour_24" style="text;strokeColor=none;fillColor=none;spacingLeft=4;spacingRight=4;overflow=hidden;rotatable=0;points=[[0,0.5],[1,0.5]];portConstraint=eastwest;fontSize=12;whiteSpace=wrap;html=1;" vertex="1" parent="BMJ4djX7dh_ReBlbfwXL-168">
          <mxGeometry y="56" width="160" height="30" as="geometry" />
        </mxCell>
        <mxCell id="BMJ4djX7dh_ReBlbfwXL-171" value="Hour_12" style="text;strokeColor=none;fillColor=none;spacingLeft=4;spacingRight=4;overflow=hidden;rotatable=0;points=[[0,0.5],[1,0.5]];portConstraint=eastwest;fontSize=12;whiteSpace=wrap;html=1;" vertex="1" parent="BMJ4djX7dh_ReBlbfwXL-168">
          <mxGeometry y="86" width="160" height="30" as="geometry" />
        </mxCell>
        <mxCell id="BMJ4djX7dh_ReBlbfwXL-172" value="AM/PM" style="text;strokeColor=none;fillColor=none;spacingLeft=4;spacingRight=4;overflow=hidden;rotatable=0;points=[[0,0.5],[1,0.5]];portConstraint=eastwest;fontSize=12;whiteSpace=wrap;html=1;" vertex="1" parent="BMJ4djX7dh_ReBlbfwXL-168">
          <mxGeometry y="116" width="160" height="30" as="geometry" />
        </mxCell>
        <mxCell id="BMJ4djX7dh_ReBlbfwXL-173" value="TimeBlock" style="text;strokeColor=none;fillColor=none;spacingLeft=4;spacingRight=4;overflow=hidden;rotatable=0;points=[[0,0.5],[1,0.5]];portConstraint=eastwest;fontSize=12;whiteSpace=wrap;html=1;" vertex="1" parent="BMJ4djX7dh_ReBlbfwXL-168">
          <mxGeometry y="146" width="160" height="30" as="geometry" />
        </mxCell>
        <mxCell id="BMJ4djX7dh_ReBlbfwXL-174" style="edgeStyle=orthogonalEdgeStyle;shape=connector;rounded=0;orthogonalLoop=1;jettySize=auto;html=1;strokeColor=default;align=center;verticalAlign=middle;fontFamily=Helvetica;fontSize=11;fontColor=default;labelBackgroundColor=default;endArrow=ERmany;endFill=0;" edge="1" parent="1" source="BMJ4djX7dh_ReBlbfwXL-169" target="BMJ4djX7dh_ReBlbfwXL-166">
          <mxGeometry relative="1" as="geometry" />
        </mxCell>
        <mxCell id="BMJ4djX7dh_ReBlbfwXL-175" style="edgeStyle=orthogonalEdgeStyle;shape=connector;rounded=0;orthogonalLoop=1;jettySize=auto;html=1;entryX=0.3;entryY=1;entryDx=0;entryDy=0;entryPerimeter=0;strokeColor=default;align=center;verticalAlign=middle;fontFamily=Helvetica;fontSize=11;fontColor=default;labelBackgroundColor=default;endArrow=ERmany;endFill=0;" edge="1" parent="1" source="BMJ4djX7dh_ReBlbfwXL-165" target="BMJ4djX7dh_ReBlbfwXL-97">
          <mxGeometry relative="1" as="geometry" />
        </mxCell>
        <mxCell id="BMJ4djX7dh_ReBlbfwXL-176" style="edgeStyle=orthogonalEdgeStyle;shape=connector;rounded=0;orthogonalLoop=1;jettySize=auto;html=1;entryX=0.003;entryY=0.727;entryDx=0;entryDy=0;entryPerimeter=0;strokeColor=default;align=center;verticalAlign=middle;fontFamily=Helvetica;fontSize=11;fontColor=default;labelBackgroundColor=default;endArrow=ERmany;endFill=0;exitX=0;exitY=0.5;exitDx=0;exitDy=0;" edge="1" parent="1" source="BMJ4djX7dh_ReBlbfwXL-166" target="BMJ4djX7dh_ReBlbfwXL-98">
          <mxGeometry relative="1" as="geometry" />
        </mxCell>
        <mxCell id="BMJ4djX7dh_ReBlbfwXL-177" value="Dim_Staff" style="swimlane;fontStyle=0;childLayout=stackLayout;horizontal=1;startSize=26;horizontalStack=0;resizeParent=1;resizeParentMax=0;resizeLast=0;collapsible=1;marginBottom=0;align=center;fontSize=14;" vertex="1" parent="1">
          <mxGeometry x="1427" y="1910" width="160" height="146" as="geometry" />
        </mxCell>
        <mxCell id="BMJ4djX7dh_ReBlbfwXL-178" value="&lt;u&gt;StaffKey&lt;/u&gt;" style="text;strokeColor=none;fillColor=none;spacingLeft=4;spacingRight=4;overflow=hidden;rotatable=0;points=[[0,0.5],[1,0.5]];portConstraint=eastwest;fontSize=12;whiteSpace=wrap;html=1;" vertex="1" parent="BMJ4djX7dh_ReBlbfwXL-177">
          <mxGeometry y="26" width="160" height="30" as="geometry" />
        </mxCell>
        <mxCell id="BMJ4djX7dh_ReBlbfwXL-179" value="Name" style="text;strokeColor=none;fillColor=none;spacingLeft=4;spacingRight=4;overflow=hidden;rotatable=0;points=[[0,0.5],[1,0.5]];portConstraint=eastwest;fontSize=12;whiteSpace=wrap;html=1;" vertex="1" parent="BMJ4djX7dh_ReBlbfwXL-177">
          <mxGeometry y="56" width="160" height="30" as="geometry" />
        </mxCell>
        <mxCell id="BMJ4djX7dh_ReBlbfwXL-180" value="JobTitle" style="text;strokeColor=none;fillColor=none;spacingLeft=4;spacingRight=4;overflow=hidden;rotatable=0;points=[[0,0.5],[1,0.5]];portConstraint=eastwest;fontSize=12;whiteSpace=wrap;html=1;" vertex="1" parent="BMJ4djX7dh_ReBlbfwXL-177">
          <mxGeometry y="86" width="160" height="30" as="geometry" />
        </mxCell>
        <mxCell id="BMJ4djX7dh_ReBlbfwXL-183" value="isCurrent" style="text;strokeColor=none;fillColor=none;spacingLeft=4;spacingRight=4;overflow=hidden;rotatable=0;points=[[0,0.5],[1,0.5]];portConstraint=eastwest;fontSize=12;whiteSpace=wrap;html=1;" vertex="1" parent="BMJ4djX7dh_ReBlbfwXL-177">
          <mxGeometry y="116" width="160" height="30" as="geometry" />
        </mxCell>
        <mxCell id="BMJ4djX7dh_ReBlbfwXL-182" value="Date" style="html=1;dashed=0;whiteSpace=wrap;shape=mxgraph.dfd.start;rotation=-90;" vertex="1" parent="1">
          <mxGeometry x="1564" y="1940" width="80" height="30" as="geometry" />
        </mxCell>
        <mxCell id="BMJ4djX7dh_ReBlbfwXL-184" style="edgeStyle=orthogonalEdgeStyle;shape=connector;rounded=0;orthogonalLoop=1;jettySize=auto;html=1;entryX=0.5;entryY=0.5;entryDx=0;entryDy=15;entryPerimeter=0;strokeColor=default;align=center;verticalAlign=middle;fontFamily=Helvetica;fontSize=11;fontColor=default;labelBackgroundColor=default;endArrow=ERmany;endFill=0;" edge="1" parent="1" source="BMJ4djX7dh_ReBlbfwXL-108" target="BMJ4djX7dh_ReBlbfwXL-182">
          <mxGeometry relative="1" as="geometry">
            <Array as="points">
              <mxPoint x="180" y="1970" />
              <mxPoint x="180" y="2330" />
              <mxPoint x="1412" y="2330" />
              <mxPoint x="1412" y="2135" />
              <mxPoint x="1640" y="2135" />
              <mxPoint x="1640" y="1955" />
            </Array>
          </mxGeometry>
        </mxCell>
        <mxCell id="BMJ4djX7dh_ReBlbfwXL-185" value="hire_date" style="edgeLabel;html=1;align=center;verticalAlign=middle;resizable=0;points=[];fontFamily=Helvetica;fontSize=11;fontColor=default;labelBackgroundColor=default;" vertex="1" connectable="0" parent="BMJ4djX7dh_ReBlbfwXL-184">
          <mxGeometry x="0.8115" y="-2" relative="1" as="geometry">
            <mxPoint as="offset" />
          </mxGeometry>
        </mxCell>
        <mxCell id="BMJ4djX7dh_ReBlbfwXL-186" value="Geography" style="html=1;dashed=0;whiteSpace=wrap;shape=mxgraph.dfd.start;rotation=-90;" vertex="1" parent="1">
          <mxGeometry x="1370" y="1940" width="80" height="30" as="geometry" />
        </mxCell>
        <mxCell id="BMJ4djX7dh_ReBlbfwXL-187" style="edgeStyle=orthogonalEdgeStyle;shape=connector;rounded=0;orthogonalLoop=1;jettySize=auto;html=1;entryX=0.5;entryY=0.5;entryDx=0;entryDy=-15;entryPerimeter=0;strokeColor=default;align=center;verticalAlign=middle;fontFamily=Helvetica;fontSize=11;fontColor=default;labelBackgroundColor=default;endArrow=ERmany;endFill=0;" edge="1" parent="1" source="BMJ4djX7dh_ReBlbfwXL-126" target="BMJ4djX7dh_ReBlbfwXL-186">
          <mxGeometry relative="1" as="geometry">
            <Array as="points">
              <mxPoint x="1360" y="1208" />
              <mxPoint x="1360" y="1955" />
            </Array>
          </mxGeometry>
        </mxCell>
        <mxCell id="BMJ4djX7dh_ReBlbfwXL-188" value="D_Class" style="swimlane;fontStyle=0;childLayout=stackLayout;horizontal=1;startSize=26;horizontalStack=0;resizeParent=1;resizeParentMax=0;resizeLast=0;collapsible=1;marginBottom=0;align=center;fontSize=14;" vertex="1" parent="1">
          <mxGeometry x="570" y="2150" width="160" height="176" as="geometry" />
        </mxCell>
        <mxCell id="BMJ4djX7dh_ReBlbfwXL-189" value="&lt;u&gt;ClassKey&lt;/u&gt;" style="text;strokeColor=none;fillColor=none;spacingLeft=4;spacingRight=4;overflow=hidden;rotatable=0;points=[[0,0.5],[1,0.5]];portConstraint=eastwest;fontSize=12;whiteSpace=wrap;html=1;" vertex="1" parent="BMJ4djX7dh_ReBlbfwXL-188">
          <mxGeometry y="26" width="160" height="30" as="geometry" />
        </mxCell>
        <mxCell id="BMJ4djX7dh_ReBlbfwXL-190" value="Name" style="text;strokeColor=none;fillColor=none;spacingLeft=4;spacingRight=4;overflow=hidden;rotatable=0;points=[[0,0.5],[1,0.5]];portConstraint=eastwest;fontSize=12;whiteSpace=wrap;html=1;" vertex="1" parent="BMJ4djX7dh_ReBlbfwXL-188">
          <mxGeometry y="56" width="160" height="30" as="geometry" />
        </mxCell>
        <mxCell id="BMJ4djX7dh_ReBlbfwXL-191" value="Category" style="text;strokeColor=none;fillColor=none;spacingLeft=4;spacingRight=4;overflow=hidden;rotatable=0;points=[[0,0.5],[1,0.5]];portConstraint=eastwest;fontSize=12;whiteSpace=wrap;html=1;" vertex="1" parent="BMJ4djX7dh_ReBlbfwXL-188">
          <mxGeometry y="86" width="160" height="30" as="geometry" />
        </mxCell>
        <mxCell id="BMJ4djX7dh_ReBlbfwXL-192" value="DurationMin" style="text;strokeColor=none;fillColor=none;spacingLeft=4;spacingRight=4;overflow=hidden;rotatable=0;points=[[0,0.5],[1,0.5]];portConstraint=eastwest;fontSize=12;whiteSpace=wrap;html=1;" vertex="1" parent="BMJ4djX7dh_ReBlbfwXL-188">
          <mxGeometry y="116" width="160" height="30" as="geometry" />
        </mxCell>
        <mxCell id="BMJ4djX7dh_ReBlbfwXL-193" value="MaxParticipants" style="text;strokeColor=none;fillColor=none;spacingLeft=4;spacingRight=4;overflow=hidden;rotatable=0;points=[[0,0.5],[1,0.5]];portConstraint=eastwest;fontSize=12;whiteSpace=wrap;html=1;" vertex="1" parent="BMJ4djX7dh_ReBlbfwXL-188">
          <mxGeometry y="146" width="160" height="30" as="geometry" />
        </mxCell>
        <mxCell id="BMJ4djX7dh_ReBlbfwXL-194" style="edgeStyle=orthogonalEdgeStyle;shape=connector;rounded=0;orthogonalLoop=1;jettySize=auto;html=1;exitX=0.5;exitY=0;exitDx=0;exitDy=0;entryX=0;entryY=0;entryDx=155;entryDy=330;entryPerimeter=0;strokeColor=default;align=center;verticalAlign=middle;fontFamily=Helvetica;fontSize=11;fontColor=default;labelBackgroundColor=default;endArrow=ERmany;endFill=0;" edge="1" parent="1" source="BMJ4djX7dh_ReBlbfwXL-188" target="BMJ4djX7dh_ReBlbfwXL-97">
          <mxGeometry relative="1" as="geometry" />
        </mxCell>
        <mxCell id="BMJ4djX7dh_ReBlbfwXL-195" value="Dim_Equipment" style="swimlane;fontStyle=0;childLayout=stackLayout;horizontal=1;startSize=26;horizontalStack=0;resizeParent=1;resizeParentMax=0;resizeLast=0;collapsible=1;marginBottom=0;align=center;fontSize=14;" vertex="1" parent="1">
          <mxGeometry x="1130" y="2150" width="160" height="146" as="geometry" />
        </mxCell>
        <mxCell id="BMJ4djX7dh_ReBlbfwXL-196" value="&lt;u&gt;EquipmentKey&lt;/u&gt;" style="text;strokeColor=none;fillColor=none;spacingLeft=4;spacingRight=4;overflow=hidden;rotatable=0;points=[[0,0.5],[1,0.5]];portConstraint=eastwest;fontSize=12;whiteSpace=wrap;html=1;" vertex="1" parent="BMJ4djX7dh_ReBlbfwXL-195">
          <mxGeometry y="26" width="160" height="30" as="geometry" />
        </mxCell>
        <mxCell id="BMJ4djX7dh_ReBlbfwXL-197" value="Name" style="text;strokeColor=none;fillColor=none;spacingLeft=4;spacingRight=4;overflow=hidden;rotatable=0;points=[[0,0.5],[1,0.5]];portConstraint=eastwest;fontSize=12;whiteSpace=wrap;html=1;" vertex="1" parent="BMJ4djX7dh_ReBlbfwXL-195">
          <mxGeometry y="56" width="160" height="30" as="geometry" />
        </mxCell>
        <mxCell id="BMJ4djX7dh_ReBlbfwXL-198" value="Category" style="text;strokeColor=none;fillColor=none;spacingLeft=4;spacingRight=4;overflow=hidden;rotatable=0;points=[[0,0.5],[1,0.5]];portConstraint=eastwest;fontSize=12;whiteSpace=wrap;html=1;" vertex="1" parent="BMJ4djX7dh_ReBlbfwXL-195">
          <mxGeometry y="86" width="160" height="30" as="geometry" />
        </mxCell>
        <mxCell id="BMJ4djX7dh_ReBlbfwXL-199" value="Type" style="text;strokeColor=none;fillColor=none;spacingLeft=4;spacingRight=4;overflow=hidden;rotatable=0;points=[[0,0.5],[1,0.5]];portConstraint=eastwest;fontSize=12;whiteSpace=wrap;html=1;" vertex="1" parent="BMJ4djX7dh_ReBlbfwXL-195">
          <mxGeometry y="116" width="160" height="30" as="geometry" />
        </mxCell>
        <mxCell id="BMJ4djX7dh_ReBlbfwXL-200" value="Facility" style="html=1;dashed=0;whiteSpace=wrap;shape=mxgraph.dfd.start;rotation=-90;" vertex="1" parent="1">
          <mxGeometry x="1268" y="2176" width="80" height="30" as="geometry" />
        </mxCell>
        <mxCell id="BMJ4djX7dh_ReBlbfwXL-201" value="Zone" style="html=1;dashed=0;whiteSpace=wrap;shape=mxgraph.dfd.start;rotation=-90;" vertex="1" parent="1">
          <mxGeometry x="1070" y="2176" width="80" height="30" as="geometry" />
        </mxCell>
        <mxCell id="BMJ4djX7dh_ReBlbfwXL-202" style="edgeStyle=orthogonalEdgeStyle;shape=connector;rounded=0;orthogonalLoop=1;jettySize=auto;html=1;entryX=0.5;entryY=0.5;entryDx=0;entryDy=15;entryPerimeter=0;strokeColor=default;align=center;verticalAlign=middle;fontFamily=Helvetica;fontSize=11;fontColor=default;labelBackgroundColor=default;endArrow=ERmany;endFill=0;" edge="1" parent="1" source="BMJ4djX7dh_ReBlbfwXL-136" target="BMJ4djX7dh_ReBlbfwXL-200">
          <mxGeometry relative="1" as="geometry">
            <Array as="points">
              <mxPoint x="1260" y="1849" />
              <mxPoint x="1343" y="1849" />
              <mxPoint x="1343" y="2191" />
            </Array>
          </mxGeometry>
        </mxCell>
        <mxCell id="BMJ4djX7dh_ReBlbfwXL-203" style="edgeStyle=orthogonalEdgeStyle;shape=connector;rounded=0;orthogonalLoop=1;jettySize=auto;html=1;entryX=0.5;entryY=0.5;entryDx=0;entryDy=-15;entryPerimeter=0;strokeColor=default;align=center;verticalAlign=middle;fontFamily=Helvetica;fontSize=11;fontColor=default;labelBackgroundColor=default;endArrow=ERmany;endFill=0;" edge="1" parent="1" source="BMJ4djX7dh_ReBlbfwXL-148" target="BMJ4djX7dh_ReBlbfwXL-201">
          <mxGeometry relative="1" as="geometry">
            <Array as="points">
              <mxPoint x="870" y="2060" />
              <mxPoint x="1080" y="2060" />
              <mxPoint x="1080" y="2191" />
            </Array>
          </mxGeometry>
        </mxCell>
      </root>
    </mxGraphModel>
  </diagram>
</mxfile>
